<?xml version="1.0" ?><svg fill="none" height="16" viewBox="0 0 24 24" width="16" xmlns="http://www.w3.org/2000/svg"><path clip-rule="evenodd" d="M10 3.5C8.067 3.5 6.5 5.067 6.5 7C6.5 8.933 8.067 10.5 10 10.5C11.933 10.5 13.5 8.933 13.5 7C13.5 5.067 11.933 3.5 10 3.5ZM5.5 7C5.5 4.51472 7.51472 2.5 10 2.5C12.4853 2.5 14.5 4.51472 14.5 7C14.5 9.48528 12.4853 11.5 10 11.5C7.51472 11.5 5.5 9.48528 5.5 7Z" fill="black" fill-rule="evenodd"/><path clip-rule="evenodd" d="M19 8.5C17.6193 8.5 16.5 9.61929 16.5 11C16.5 12.3807 17.6193 13.5 19 13.5C20.3807 13.5 21.5 12.3807 21.5 11C21.5 9.61929 20.3807 8.5 19 8.5ZM15.5 11C15.5 9.067 17.067 7.5 19 7.5C20.933 7.5 22.5 9.067 22.5 11C22.5 12.933 20.933 14.5 19 14.5C17.067 14.5 15.5 12.933 15.5 11Z" fill="black" fill-rule="evenodd"/><path clip-rule="evenodd" d="M2.5164 20.5H17.4836C17.2263 16.591 13.9741 13.5 10 13.5C6.02588 13.5 2.7737 16.591 2.5164 20.5ZM1.5 21C1.5 16.3056 5.30558 12.5 10 12.5C14.6944 12.5 18.5 16.3056 18.5 21C18.5 21.2761 18.2761 21.5 18 21.5H2C1.72386 21.5 1.5 21.2761 1.5 21Z" fill="black" fill-rule="evenodd"/><path clip-rule="evenodd" d="M21.3536 8.64645C21.1583 8.45118 20.8417 8.45118 20.6464 8.64645L16.6464 12.6464C16.4512 12.8417 16.4512 13.1583 16.6464 13.3536C16.8417 13.5488 17.1583 13.5488 17.3536 13.3536L21.3536 9.35355C21.5488 9.15829 21.5488 8.84171 21.3536 8.64645Z" fill="black" fill-rule="evenodd"/></svg>